<svg xmlns="http://www.w3.org/2000/svg" viewBox="0 0 64 64" width="64" height="64" role="img" aria-label="성문 원정 기금">
  <defs>
    <radialGradient id="gfGlow" cx="0.5" cy="0.45" r="0.5">
      <stop offset="0.3" stop-color="#f472b6" stop-opacity="0.35"/>
      <stop offset="1" stop-color="#f472b6" stop-opacity="0"/>
    </radialGradient>
    <linearGradient id="gfStone" x1="0" y1="0" x2="0" y2="1">
      <stop offset="0" stop-color="#64748b"/>
      <stop offset="1" stop-color="#1e293b"/>
    </linearGradient>
    <linearGradient id="gfGem" x1="0" y1="0" x2="1" y2="1">
      <stop offset="0" stop-color="#fda4af"/>
      <stop offset="0.55" stop-color="#e11d48"/>
      <stop offset="1" stop-color="#881337"/>
    </linearGradient>
    <linearGradient id="gfDome" x1="0" y1="0" x2="0" y2="1">
      <stop offset="0" stop-color="#67e8f9" stop-opacity="0.75"/>
      <stop offset="1" stop-color="#67e8f9" stop-opacity="0.05"/>
    </linearGradient>
  </defs>
  <circle cx="32" cy="30" r="30" fill="url(#gfGlow)"/>
  <!-- 성문 아치 -->
  <path d="M10 56V26a22 22 0 0 1 44 0v30z" fill="url(#gfStone)" stroke="#0f172a" stroke-width="1.4"/>
  <path d="M18 56V30a14 14 0 0 1 28 0v26z" fill="#020617"/>
  <!-- 방어막 돔 -->
  <path d="M18 56a14 13 0 0 1 28 0z" fill="url(#gfDome)" stroke="#a5f3fc" stroke-width="1.1"/>
  <!-- 계단처럼 오르는 보석 — 단계마다 지급 -->
  <g stroke="#fff1f2" stroke-width="0.8" stroke-linejoin="round">
    <path d="M21 47l3-3.4 3 3.4-3 3.4z" fill="url(#gfGem)"/>
    <path d="M28.5 40.5l3.5-4 3.5 4-3.5 4z" fill="url(#gfGem)"/>
    <path d="M36 33l4.2-4.8 4.2 4.8-4.2 4.8z" fill="url(#gfGem)"/>
  </g>
  <path d="M24 44l7-6 8-7" stroke="#fde68a" stroke-width="1.2" stroke-dasharray="2 2.4" fill="none" stroke-linecap="round"/>
  <!-- 쐐기돌 왕관 -->
  <path d="M26 9l3 3.6 3-5.2 3 5.2 3-3.6-1.2 7.4H27.2z" fill="#fbbf24" stroke="#78350f" stroke-width="0.9" stroke-linejoin="round"/>
</svg>
